# WaveFront *.obj file (generated by Autodesk ATF)

mtllib wing_demo.mtl

g Твердое тело2

v -50.000000 -2.109357 4.822668
v -50.000000 -2.063601 2.839464
v -50.000000 -2.003260 6.390330
v -50.000000 -1.901679 0.448291
v -50.000000 -1.722167 7.533780
v -50.000000 -1.666808 -2.337760
v -50.000000 -1.404727 -5.493456
v -50.000000 -1.260486 8.236622
v -50.000000 -1.158682 -8.974803
v -50.000000 -0.966206 8.413955
v -50.000000 -0.964417 -12.712423
v -50.000000 -0.908826 -30.304587
v -50.000000 -0.903131 -29.043562
v -50.000000 -0.893949 -31.349370
v -50.000000 -0.883808 -27.594287
v -50.000000 -0.857926 -25.986362
v -50.000000 -0.852011 -32.152405
v -50.000000 -0.845167 -16.604933
v -50.000000 -0.832354 -24.250109
v -50.000000 -0.806640 -20.512323
v -50.000000 -0.777304 -32.691543
v -50.000000 -0.665232 -32.948864
v -50.000000 -0.635078 8.468273
v -50.000000 -0.630969 -32.967536
v -50.000000 -0.594131 -32.967620
v -50.000000 -0.512634 -32.911565
v -50.000000 -0.318117 -32.572827
v -50.000000 -0.273062 8.393133
v -50.000000 -0.082379 -31.932690
v -50.000000 0.112664 8.181533
v -50.000000 0.191528 -30.998757
v -50.000000 0.498287 -29.785979
v -50.000000 0.513953 7.826289
v -50.000000 0.830683 -28.315694
v -50.000000 0.921938 7.320405
v -50.000000 1.179999 -26.614621
v -50.000000 1.327289 6.657451
v -50.000000 1.536409 -24.713831
v -50.000000 1.720463 5.831941
v -50.000000 1.889374 -22.647731
v -50.000000 2.091953 4.839705
v -50.000000 2.228033 -20.453038
v -50.000000 2.432541 3.678263
v -50.000000 2.733551 2.347206
v -50.000000 2.819778 -15.830177
v -50.000000 2.987098 0.848564
v -50.000000 3.186343 -0.812812
v -50.000000 3.233398 -11.146445
v -50.000000 3.325741 -2.628879
v -50.000000 3.401295 -4.588026
v -50.000000 3.410806 -6.674698
v 50.000000 -2.109357 4.822668
v 50.000000 -2.063601 2.839464
v 50.000000 -2.003260 6.390330
v 50.000000 -1.901679 0.448291
v 50.000000 -1.722167 7.533780
v 50.000000 -1.666808 -2.337760
v 50.000000 -1.404727 -5.493456
v 50.000000 -1.260486 8.236622
v 50.000000 -1.158682 -8.974803
v 50.000000 -0.966206 8.413955
v 50.000000 -0.964417 -12.712423
v 50.000000 -0.908826 -30.304587
v 50.000000 -0.903131 -29.043562
v 50.000000 -0.893949 -31.349370
v 50.000000 -0.883808 -27.594287
v 50.000000 -0.857926 -25.986362
v 50.000000 -0.852011 -32.152405
v 50.000000 -0.845167 -16.604933
v 50.000000 -0.832354 -24.250109
v 50.000000 -0.806640 -20.512323
v 50.000000 -0.777304 -32.691543
v 50.000000 -0.665232 -32.948864
v 50.000000 -0.635078 8.468273
v 50.000000 -0.630969 -32.967536
v 50.000000 -0.594131 -32.967620
v 50.000000 -0.512634 -32.911565
v 50.000000 -0.318117 -32.572827
v 50.000000 -0.273062 8.393133
v 50.000000 -0.082379 -31.932690
v 50.000000 0.112664 8.181533
v 50.000000 0.191528 -30.998757
v 50.000000 0.498287 -29.785979
v 50.000000 0.513953 7.826289
v 50.000000 0.830683 -28.315694
v 50.000000 0.921938 7.320405
v 50.000000 1.179999 -26.614621
v 50.000000 1.327289 6.657451
v 50.000000 1.536409 -24.713831
v 50.000000 1.720463 5.831941
v 50.000000 1.889374 -22.647731
v 50.000000 2.091953 4.839705
v 50.000000 2.228033 -20.453038
v 50.000000 2.432541 3.678263
v 50.000000 2.733551 2.347206
v 50.000000 2.819778 -15.830177
v 50.000000 2.987098 0.848564
v 50.000000 3.186343 -0.812812
v 50.000000 3.233398 -11.146445
v 50.000000 3.325741 -2.628879
v 50.000000 3.401295 -4.588026
v 50.000000 3.410806 -6.674698
vt 3.470863 -0.176747 0.000000
vt 3.488596 -0.147319 0.000000
vt 3.494028 -0.114207 0.000000
vt 3.486514 -0.078005 0.000000
vt 3.465354 -0.039432 0.000000
vt 3.429830 0.000697 0.000000
vt 3.379241 0.041495 0.000000
vt 3.312946 0.082030 0.000000
vt 3.230395 0.121348 0.000000
vt 3.131171 0.158497 0.000000
vt 3.015027 0.192555 0.000000
vt 2.881922 0.222656 0.000000
vt 2.732057 0.248011 0.000000
vt 2.565920 0.267936 0.000000
vt 2.384313 0.281875 0.000000
vt 2.188398 0.289431 0.000000
vt 1.979731 0.290382 0.000000
vt 1.532556 0.272641 0.000000
vt 1.064183 0.231279 0.000000
vt 0.601897 0.172105 0.000000
vt 0.382428 0.138239 0.000000
vt 0.175818 0.102942 0.000000
vt -0.014261 0.067301 0.000000
vt -0.184369 0.032370 0.000000
vt -0.331397 -0.000870 0.000000
vt -0.452675 -0.031546 0.000000
vt -0.546068 -0.058937 0.000000
vt -0.610082 -0.082510 0.000000
vt -0.643956 -0.101962 0.000000
vt -0.649561 -0.110112 0.000000
vt -0.649553 -0.113796 0.000000
vt -0.647686 -0.117222 0.000000
vt -0.621953 -0.128429 0.000000
vt -0.568040 -0.135900 0.000000
vt -0.487736 -0.140094 0.000000
vt -0.383258 -0.141581 0.000000
vt -0.257155 -0.141012 0.000000
vt -0.112228 -0.139079 0.000000
vt 0.048565 -0.136491 0.000000
vt 0.222190 -0.133934 0.000000
vt 0.595968 -0.131363 0.000000
vt 0.986708 -0.135215 0.000000
vt 1.375959 -0.147140 0.000000
vt 1.749721 -0.166567 0.000000
vt 2.097855 -0.191171 0.000000
vt 2.413425 -0.217380 0.000000
vt 2.692030 -0.240867 0.000000
vt 2.931147 -0.257059 0.000000
vt 3.129467 -0.261634 0.000000
vt 3.286234 -0.251025 0.000000
vt 3.400579 -0.222915 0.000000
vt 1.106310 -5.000000 0.000000
vt 1.106310 5.000000 0.000000
vt 1.089023 5.000000 0.000000
vt 1.071737 5.000000 0.000000
vt 1.054451 5.000000 0.000000
vt 1.037165 5.000000 0.000000
vt 1.019879 5.000000 0.000000
vt 1.002593 5.000000 0.000000
vt 0.985307 5.000000 0.000000
vt 0.968021 5.000000 0.000000
vt 0.950735 5.000000 0.000000
vt 0.933449 5.000000 0.000000
vt 0.916163 5.000000 0.000000
vt 0.898876 5.000000 0.000000
vt 0.881590 5.000000 0.000000
vt 0.864304 5.000000 0.000000
vt 0.847018 5.000000 0.000000
vt 0.829732 5.000000 0.000000
vt 0.795160 5.000000 0.000000
vt 0.760588 5.000000 0.000000
vt 0.726016 5.000000 0.000000
vt 0.708730 5.000000 0.000000
vt 0.691443 5.000000 0.000000
vt 0.674157 5.000000 0.000000
vt 0.656871 5.000000 0.000000
vt 0.639585 5.000000 0.000000
vt 0.622299 5.000000 0.000000
vt 0.605013 5.000000 0.000000
vt 0.587727 5.000000 0.000000
vt 0.570441 5.000000 0.000000
vt 0.561798 5.000000 0.000000
vt 0.557476 5.000000 0.000000
vt 0.553155 5.000000 0.000000
vt 0.535869 5.000000 0.000000
vt 0.518583 5.000000 0.000000
vt 0.501297 5.000000 0.000000
vt 0.484010 5.000000 0.000000
vt 0.466724 5.000000 0.000000
vt 0.449438 5.000000 0.000000
vt 0.432152 5.000000 0.000000
vt 0.414866 5.000000 0.000000
vt 0.380294 5.000000 0.000000
vt 0.345722 5.000000 0.000000
vt 0.311150 5.000000 0.000000
vt 0.276577 5.000000 0.000000
vt 0.242005 5.000000 0.000000
vt 0.207433 5.000000 0.000000
vt 0.172861 5.000000 0.000000
vt 0.138289 5.000000 0.000000
vt 0.103717 5.000000 0.000000
vt 0.069144 5.000000 0.000000
vt 0.034572 5.000000 0.000000
vt 0.000000 5.000000 0.000000
vt 0.000000 -5.000000 0.000000
vt 0.034572 -5.000000 0.000000
vt 0.069144 -5.000000 0.000000
vt 0.103717 -5.000000 0.000000
vt 0.138289 -5.000000 0.000000
vt 0.172861 -5.000000 0.000000
vt 0.207433 -5.000000 0.000000
vt 0.242005 -5.000000 0.000000
vt 0.276577 -5.000000 0.000000
vt 0.311150 -5.000000 0.000000
vt 0.345722 -5.000000 0.000000
vt 0.380294 -5.000000 0.000000
vt 0.414866 -5.000000 0.000000
vt 0.432152 -5.000000 0.000000
vt 0.449438 -5.000000 0.000000
vt 0.466724 -5.000000 0.000000
vt 0.484010 -5.000000 0.000000
vt 0.501297 -5.000000 0.000000
vt 0.518583 -5.000000 0.000000
vt 0.535869 -5.000000 0.000000
vt 0.553155 -5.000000 0.000000
vt 0.557476 -5.000000 0.000000
vt 0.561798 -5.000000 0.000000
vt 0.570441 -5.000000 0.000000
vt 0.587727 -5.000000 0.000000
vt 0.605013 -5.000000 0.000000
vt 0.622299 -5.000000 0.000000
vt 0.639585 -5.000000 0.000000
vt 0.656871 -5.000000 0.000000
vt 0.674157 -5.000000 0.000000
vt 0.691443 -5.000000 0.000000
vt 0.708730 -5.000000 0.000000
vt 0.726016 -5.000000 0.000000
vt 0.760588 -5.000000 0.000000
vt 0.795160 -5.000000 0.000000
vt 0.829732 -5.000000 0.000000
vt 0.847018 -5.000000 0.000000
vt 0.864304 -5.000000 0.000000
vt 0.881590 -5.000000 0.000000
vt 0.898876 -5.000000 0.000000
vt 0.916163 -5.000000 0.000000
vt 0.933449 -5.000000 0.000000
vt 0.950735 -5.000000 0.000000
vt 0.968021 -5.000000 0.000000
vt 0.985307 -5.000000 0.000000
vt 1.002593 -5.000000 0.000000
vt 1.019879 -5.000000 0.000000
vt 1.037165 -5.000000 0.000000
vt 1.054451 -5.000000 0.000000
vt 1.071737 -5.000000 0.000000
vt 1.089023 -5.000000 0.000000
vt -3.470863 -0.176747 0.000000
vt -3.400579 -0.222915 0.000000
vt -3.286234 -0.251025 0.000000
vt -3.129467 -0.261634 0.000000
vt -2.931147 -0.257059 0.000000
vt -2.692030 -0.240867 0.000000
vt -2.413425 -0.217380 0.000000
vt -2.097855 -0.191171 0.000000
vt -1.749721 -0.166567 0.000000
vt -1.375959 -0.147140 0.000000
vt -0.986708 -0.135215 0.000000
vt -0.595968 -0.131363 0.000000
vt -0.222190 -0.133934 0.000000
vt -0.048565 -0.136491 0.000000
vt 0.112228 -0.139079 0.000000
vt 0.257155 -0.141012 0.000000
vt 0.383258 -0.141581 0.000000
vt 0.487736 -0.140094 0.000000
vt 0.568040 -0.135900 0.000000
vt 0.621953 -0.128429 0.000000
vt 0.647686 -0.117222 0.000000
vt 0.649553 -0.113796 0.000000
vt 0.649561 -0.110112 0.000000
vt 0.643956 -0.101962 0.000000
vt 0.610082 -0.082510 0.000000
vt 0.546068 -0.058937 0.000000
vt 0.452675 -0.031546 0.000000
vt 0.331397 -0.000870 0.000000
vt 0.184369 0.032370 0.000000
vt 0.014261 0.067301 0.000000
vt -0.175818 0.102942 0.000000
vt -0.382428 0.138239 0.000000
vt -0.601897 0.172105 0.000000
vt -1.064183 0.231279 0.000000
vt -1.532556 0.272641 0.000000
vt -1.979731 0.290382 0.000000
vt -2.188398 0.289431 0.000000
vt -2.384313 0.281875 0.000000
vt -2.565920 0.267936 0.000000
vt -2.732057 0.248011 0.000000
vt -2.881922 0.222656 0.000000
vt -3.015027 0.192555 0.000000
vt -3.131171 0.158497 0.000000
vt -3.230395 0.121348 0.000000
vt -3.312946 0.082030 0.000000
vt -3.379241 0.041495 0.000000
vt -3.429830 0.000697 0.000000
vt -3.465354 -0.039432 0.000000
vt -3.486514 -0.078005 0.000000
vt -3.494028 -0.114207 0.000000
vt -3.488596 -0.147319 0.000000
vn -0.100000 0.000000 0.000000
vn -0.100000 0.000000 0.000000
vn -0.100000 0.000000 0.000000
vn -0.100000 0.000000 0.000000
vn -0.100000 0.000000 0.000000
vn -0.100000 0.000000 0.000000
vn -0.100000 0.000000 0.000000
vn -0.100000 0.000000 0.000000
vn -0.100000 0.000000 0.000000
vn -0.100000 0.000000 0.000000
vn -0.100000 0.000000 0.000000
vn -0.100000 0.000000 0.000000
vn -0.100000 0.000000 0.000000
vn -0.100000 0.000000 0.000000
vn -0.100000 0.000000 0.000000
vn -0.100000 0.000000 0.000000
vn -0.100000 0.000000 0.000000
vn -0.100000 0.000000 0.000000
vn -0.100000 0.000000 0.000000
vn -0.100000 0.000000 0.000000
vn -0.100000 0.000000 0.000000
vn -0.100000 0.000000 0.000000
vn -0.100000 0.000000 0.000000
vn -0.100000 0.000000 0.000000
vn -0.100000 0.000000 0.000000
vn -0.100000 0.000000 0.000000
vn -0.100000 0.000000 0.000000
vn -0.100000 0.000000 0.000000
vn -0.100000 0.000000 0.000000
vn -0.100000 0.000000 0.000000
vn -0.100000 0.000000 0.000000
vn -0.100000 0.000000 0.000000
vn -0.100000 0.000000 0.000000
vn -0.100000 0.000000 0.000000
vn -0.100000 0.000000 0.000000
vn -0.100000 0.000000 0.000000
vn -0.100000 0.000000 0.000000
vn -0.100000 0.000000 0.000000
vn -0.100000 0.000000 0.000000
vn -0.100000 0.000000 0.000000
vn -0.100000 0.000000 0.000000
vn -0.100000 0.000000 0.000000
vn -0.100000 0.000000 0.000000
vn -0.100000 0.000000 0.000000
vn -0.100000 0.000000 0.000000
vn -0.100000 0.000000 0.000000
vn -0.100000 0.000000 0.000000
vn -0.100000 0.000000 0.000000
vn -0.100000 0.000000 0.000000
vn -0.100000 0.000000 0.000000
vn -0.100000 0.000000 0.000000
vn 0.000000 -0.065374 0.075672
vn 0.000000 -0.065374 0.075672
vn 0.000000 -0.034913 0.093707
vn 0.000000 0.002668 0.099964
vn 0.000000 0.035438 0.093510
vn 0.000000 0.058142 0.081360
vn 0.000000 0.072652 0.068715
vn 0.000000 0.081932 0.057333
vn 0.000000 0.088019 0.047461
vn 0.000000 0.092111 0.038931
vn 0.000000 0.094903 0.031518
vn 0.000000 0.096818 0.025027
vn 0.000000 0.098118 0.019307
vn 0.000000 0.098981 0.014238
vn 0.000000 0.099526 0.009729
vn 0.000000 0.099837 0.005705
vn 0.000000 0.099978 0.002109
vn 0.000000 0.099994 -0.001107
vn 0.000000 0.099786 -0.006543
vn 0.000000 0.099407 -0.010876
vn 0.000000 0.098951 -0.014443
vn 0.000000 0.098702 -0.016059
vn 0.000000 0.098432 -0.017638
vn 0.000000 0.098128 -0.019261
vn 0.000000 0.097760 -0.021046
vn 0.000000 0.097272 -0.023199
vn 0.000000 0.096526 -0.026130
vn 0.000000 0.095134 -0.030813
vn 0.000000 0.091545 -0.040244
vn 0.000000 0.073386 -0.067930
vn 0.000000 0.023579 -0.097180
vn 0.000000 -0.025565 -0.096677
vn 0.000000 -0.064605 -0.076330
vn 0.000000 -0.097427 -0.022540
vn 0.000000 -0.099639 -0.008488
vn 0.000000 -0.099956 -0.002949
vn 0.000000 -0.100000 -0.000299
vn 0.000000 -0.099995 0.001006
vn 0.000000 -0.099988 0.001550
vn 0.000000 -0.099987 0.001600
vn 0.000000 -0.099992 0.001298
vn 0.000000 -0.100000 -0.000043
vn 0.000000 -0.099980 -0.001989
vn 0.000000 -0.099914 -0.004151
vn 0.000000 -0.099807 -0.006204
vn 0.000000 -0.099694 -0.007814
vn 0.000000 -0.099632 -0.008571
vn 0.000000 -0.099686 -0.007923
vn 0.000000 -0.099873 -0.005046
vn 0.000000 -0.099990 0.001413
vn 0.000000 -0.099024 0.013936
vn 0.000000 -0.092798 0.037262
vn 0.000000 -0.065374 0.075672
vn 0.000000 -0.065374 0.075672
vn 0.000000 -0.092798 0.037262
vn 0.000000 -0.099024 0.013936
vn 0.000000 -0.099990 0.001413
vn 0.000000 -0.099873 -0.005046
vn 0.000000 -0.099686 -0.007923
vn 0.000000 -0.099632 -0.008571
vn 0.000000 -0.099694 -0.007814
vn 0.000000 -0.099807 -0.006204
vn 0.000000 -0.099914 -0.004151
vn 0.000000 -0.099980 -0.001989
vn 0.000000 -0.100000 -0.000043
vn 0.000000 -0.099992 0.001298
vn 0.000000 -0.099987 0.001600
vn 0.000000 -0.099988 0.001550
vn 0.000000 -0.099995 0.001006
vn 0.000000 -0.100000 -0.000299
vn 0.000000 -0.099956 -0.002949
vn 0.000000 -0.099639 -0.008488
vn 0.000000 -0.097427 -0.022540
vn 0.000000 -0.064605 -0.076330
vn 0.000000 -0.025565 -0.096677
vn 0.000000 0.023579 -0.097180
vn 0.000000 0.073386 -0.067930
vn 0.000000 0.091545 -0.040244
vn 0.000000 0.095134 -0.030813
vn 0.000000 0.096526 -0.026130
vn 0.000000 0.097272 -0.023199
vn 0.000000 0.097760 -0.021046
vn 0.000000 0.098128 -0.019261
vn 0.000000 0.098432 -0.017638
vn 0.000000 0.098702 -0.016059
vn 0.000000 0.098951 -0.014443
vn 0.000000 0.099407 -0.010876
vn 0.000000 0.099786 -0.006543
vn 0.000000 0.099994 -0.001107
vn 0.000000 0.099978 0.002109
vn 0.000000 0.099837 0.005705
vn 0.000000 0.099526 0.009729
vn 0.000000 0.098981 0.014238
vn 0.000000 0.098118 0.019307
vn 0.000000 0.096818 0.025027
vn 0.000000 0.094903 0.031518
vn 0.000000 0.092111 0.038931
vn 0.000000 0.088019 0.047461
vn 0.000000 0.081932 0.057333
vn 0.000000 0.072652 0.068715
vn 0.000000 0.058142 0.081360
vn 0.000000 0.035438 0.093510
vn 0.000000 0.002668 0.099964
vn 0.000000 -0.034913 0.093707
vn 0.100000 0.000000 0.000000
vn 0.100000 0.000000 0.000000
vn 0.100000 0.000000 0.000000
vn 0.100000 0.000000 0.000000
vn 0.100000 0.000000 0.000000
vn 0.100000 0.000000 0.000000
vn 0.100000 0.000000 0.000000
vn 0.100000 0.000000 0.000000
vn 0.100000 0.000000 0.000000
vn 0.100000 0.000000 0.000000
vn 0.100000 0.000000 0.000000
vn 0.100000 0.000000 0.000000
vn 0.100000 0.000000 0.000000
vn 0.100000 0.000000 0.000000
vn 0.100000 0.000000 0.000000
vn 0.100000 0.000000 0.000000
vn 0.100000 0.000000 0.000000
vn 0.100000 0.000000 0.000000
vn 0.100000 0.000000 0.000000
vn 0.100000 0.000000 0.000000
vn 0.100000 0.000000 0.000000
vn 0.100000 0.000000 0.000000
vn 0.100000 0.000000 0.000000
vn 0.100000 0.000000 0.000000
vn 0.100000 0.000000 0.000000
vn 0.100000 0.000000 0.000000
vn 0.100000 0.000000 0.000000
vn 0.100000 0.000000 0.000000
vn 0.100000 0.000000 0.000000
vn 0.100000 0.000000 0.000000
vn 0.100000 0.000000 0.000000
vn 0.100000 0.000000 0.000000
vn 0.100000 0.000000 0.000000
vn 0.100000 0.000000 0.000000
vn 0.100000 0.000000 0.000000
vn 0.100000 0.000000 0.000000
vn 0.100000 0.000000 0.000000
vn 0.100000 0.000000 0.000000
vn 0.100000 0.000000 0.000000
vn 0.100000 0.000000 0.000000
vn 0.100000 0.000000 0.000000
vn 0.100000 0.000000 0.000000
vn 0.100000 0.000000 0.000000
vn 0.100000 0.000000 0.000000
vn 0.100000 0.000000 0.000000
vn 0.100000 0.000000 0.000000
vn 0.100000 0.000000 0.000000
vn 0.100000 0.000000 0.000000
vn 0.100000 0.000000 0.000000
vn 0.100000 0.000000 0.000000
vn 0.100000 0.000000 0.000000
usemtl 191,191,191
f 5/51/51 8/1/1 7/45/45
f 7/45/45 8/1/1 10/2/2
f 7/45/45 10/2/2 23/3/3
f 23/3/3 28/4/4 7/45/45
f 7/45/45 28/4/4 30/5/5
f 7/45/45 30/5/5 33/6/6
f 33/6/6 35/7/7 7/45/45
f 7/45/45 35/7/7 37/8/8
f 7/45/45 37/8/8 39/9/9
f 39/9/9 41/10/10 7/45/45
f 7/45/45 41/10/10 43/11/11
f 7/45/45 43/11/11 44/12/12
f 44/12/12 46/13/13 7/45/45
f 7/45/45 46/13/13 47/14/14
f 7/45/45 47/14/14 49/15/15
f 7/45/45 49/15/15 9/44/44
f 9/44/44 49/15/15 50/16/16
f 9/44/44 50/16/16 51/17/17
f 51/17/17 48/18/18 9/44/44
f 9/44/44 48/18/18 11/43/43
f 11/43/43 48/18/18 45/19/19
f 11/43/43 45/19/19 18/42/42
f 18/42/42 45/19/19 42/20/20
f 18/42/42 42/20/20 20/41/41
f 20/41/41 42/20/20 40/21/21
f 20/41/41 40/21/21 38/22/22
f 38/22/22 36/23/23 20/41/41
f 20/41/41 36/23/23 34/24/24
f 20/41/41 34/24/24 32/25/25
f 32/25/25 31/26/26 20/41/41
f 20/41/41 31/26/26 21/33/33
f 20/41/41 21/33/33 19/40/40
f 19/40/40 21/33/33 16/39/39
f 16/39/39 21/33/33 15/38/38
f 15/38/38 21/33/33 13/37/37
f 13/37/37 21/33/33 12/36/36
f 12/36/36 21/33/33 14/35/35
f 14/35/35 21/33/33 17/34/34
f 31/26/26 29/27/27 21/33/33
f 21/33/33 29/27/27 27/28/28
f 21/33/33 27/28/28 26/29/29
f 26/29/29 25/30/30 21/33/33
f 21/33/33 25/30/30 24/31/31
f 21/33/33 24/31/31 22/32/32
f 7/45/45 6/46/46 5/51/51
f 5/51/51 6/46/46 4/47/47
f 5/51/51 4/47/47 3/50/50
f 3/50/50 4/47/47 2/48/48
f 3/50/50 2/48/48 1/49/49
f 59/53/53 61/54/54 8/52/52
f 8/52/52 61/54/54 10/155/155
f 10/155/155 61/54/54 74/55/55
f 10/155/155 74/55/55 23/154/154
f 23/154/154 74/55/55 79/56/56
f 23/154/154 79/56/56 28/153/153
f 28/153/153 79/56/56 81/57/57
f 28/153/153 81/57/57 30/152/152
f 30/152/152 81/57/57 84/58/58
f 30/152/152 84/58/58 33/151/151
f 33/151/151 84/58/58 86/59/59
f 33/151/151 86/59/59 35/150/150
f 35/150/150 86/59/59 88/60/60
f 35/150/150 88/60/60 37/149/149
f 37/149/149 88/60/60 90/61/61
f 37/149/149 90/61/61 39/148/148
f 39/148/148 90/61/61 92/62/62
f 39/148/148 92/62/62 41/147/147
f 41/147/147 92/62/62 94/63/63
f 41/147/147 94/63/63 43/146/146
f 43/146/146 94/63/63 95/64/64
f 43/146/146 95/64/64 44/145/145
f 44/145/145 95/64/64 97/65/65
f 44/145/145 97/65/65 46/144/144
f 46/144/144 97/65/65 98/66/66
f 46/144/144 98/66/66 47/143/143
f 47/143/143 98/66/66 100/67/67
f 47/143/143 100/67/67 49/142/142
f 49/142/142 100/67/67 101/68/68
f 49/142/142 101/68/68 50/141/141
f 50/141/141 101/68/68 102/69/69
f 50/141/141 102/69/69 51/140/140
f 51/140/140 102/69/69 99/70/70
f 51/140/140 99/70/70 48/139/139
f 48/139/139 99/70/70 96/71/71
f 48/139/139 96/71/71 45/138/138
f 45/138/138 96/71/71 93/72/72
f 45/138/138 93/72/72 42/137/137
f 42/137/137 93/72/72 91/73/73
f 42/137/137 91/73/73 40/136/136
f 40/136/136 91/73/73 89/74/74
f 40/136/136 89/74/74 38/135/135
f 38/135/135 89/74/74 87/75/75
f 38/135/135 87/75/75 36/134/134
f 36/134/134 87/75/75 85/76/76
f 36/134/134 85/76/76 34/133/133
f 34/133/133 85/76/76 83/77/77
f 34/133/133 83/77/77 32/132/132
f 32/132/132 83/77/77 82/78/78
f 32/132/132 82/78/78 31/131/131
f 31/131/131 82/78/78 80/79/79
f 31/131/131 80/79/79 29/130/130
f 29/130/130 80/79/79 78/80/80
f 29/130/130 78/80/80 27/129/129
f 27/129/129 78/80/80 77/81/81
f 27/129/129 77/81/81 26/128/128
f 26/128/128 77/81/81 76/82/82
f 26/128/128 76/82/82 25/127/127
f 25/127/127 76/82/82 75/83/83
f 25/127/127 75/83/83 24/126/126
f 24/126/126 75/83/83 73/84/84
f 24/126/126 73/84/84 22/125/125
f 22/125/125 73/84/84 72/85/85
f 22/125/125 72/85/85 21/124/124
f 21/124/124 72/85/85 68/86/86
f 21/124/124 68/86/86 17/123/123
f 17/123/123 68/86/86 65/87/87
f 17/123/123 65/87/87 14/122/122
f 14/122/122 65/87/87 63/88/88
f 14/122/122 63/88/88 12/121/121
f 12/121/121 63/88/88 64/89/89
f 12/121/121 64/89/89 13/120/120
f 13/120/120 64/89/89 66/90/90
f 13/120/120 66/90/90 15/119/119
f 15/119/119 66/90/90 67/91/91
f 15/119/119 67/91/91 16/118/118
f 16/118/118 67/91/91 70/92/92
f 16/118/118 70/92/92 19/117/117
f 19/117/117 70/92/92 71/93/93
f 19/117/117 71/93/93 20/116/116
f 20/116/116 71/93/93 69/94/94
f 20/116/116 69/94/94 18/115/115
f 18/115/115 69/94/94 62/95/95
f 18/115/115 62/95/95 11/114/114
f 11/114/114 62/95/95 60/96/96
f 11/114/114 60/96/96 9/113/113
f 9/113/113 60/96/96 58/97/97
f 9/113/113 58/97/97 7/112/112
f 7/112/112 58/97/97 57/98/98
f 7/112/112 57/98/98 6/111/111
f 6/111/111 57/98/98 55/99/99
f 6/111/111 55/99/99 4/110/110
f 4/110/110 55/99/99 53/100/100
f 4/110/110 53/100/100 2/109/109
f 2/109/109 53/100/100 52/101/101
f 2/109/109 52/101/101 1/108/108
f 1/108/108 52/101/101 54/102/102
f 1/108/108 54/102/102 3/107/107
f 3/107/107 54/102/102 56/103/103
f 3/107/107 56/103/103 5/106/106
f 5/106/106 56/103/103 59/104/104
f 5/106/106 59/104/104 8/105/105
f 61/206/206 59/156/156 58/163/163
f 58/163/163 59/156/156 56/157/157
f 58/163/163 56/157/157 57/162/162
f 57/162/162 56/157/157 55/161/161
f 55/161/161 56/157/157 54/158/158
f 55/161/161 54/158/158 53/160/160
f 53/160/160 54/158/158 52/159/159
f 60/164/164 79/204/204 58/163/163
f 58/163/163 79/204/204 74/205/205
f 58/163/163 74/205/205 61/206/206
f 62/165/165 99/190/190 60/164/164
f 60/164/164 99/190/190 102/191/191
f 60/164/164 102/191/191 101/192/192
f 99/190/190 62/165/165 96/189/189
f 96/189/189 62/165/165 69/166/166
f 96/189/189 69/166/166 93/188/188
f 93/188/188 69/166/166 71/167/167
f 93/188/188 71/167/167 91/187/187
f 91/187/187 71/167/167 89/186/186
f 89/186/186 71/167/167 87/185/185
f 87/185/185 71/167/167 85/184/184
f 85/184/184 71/167/167 83/183/183
f 83/183/183 71/167/167 82/182/182
f 82/182/182 71/167/167 72/175/175
f 82/182/182 72/175/175 80/181/181
f 80/181/181 72/175/175 78/180/180
f 78/180/180 72/175/175 77/179/179
f 77/179/179 72/175/175 76/178/178
f 76/178/178 72/175/175 75/177/177
f 75/177/177 72/175/175 73/176/176
f 71/167/167 70/168/168 72/175/175
f 72/175/175 70/168/168 67/169/169
f 72/175/175 67/169/169 66/170/170
f 66/170/170 64/171/171 72/175/175
f 72/175/175 64/171/171 63/172/172
f 72/175/175 63/172/172 65/173/173
f 65/173/173 68/174/174 72/175/175
f 101/192/192 100/193/193 60/164/164
f 60/164/164 100/193/193 98/194/194
f 60/164/164 98/194/194 97/195/195
f 97/195/195 95/196/196 60/164/164
f 60/164/164 95/196/196 94/197/197
f 60/164/164 94/197/197 92/198/198
f 92/198/198 90/199/199 60/164/164
f 60/164/164 90/199/199 88/200/200
f 60/164/164 88/200/200 86/201/201
f 86/201/201 84/202/202 60/164/164
f 60/164/164 84/202/202 81/203/203
f 60/164/164 81/203/203 79/204/204

# 102 vertexes
# 206 texture params
# 206 normals
# 200 facets

# 1 groups
