# WaveFront *.obj file (generated by Autodesk ATF)

mtllib wing_demo_3.mtl

g Твердое тело3

v -10.645120 -0.793286 -50.000000
v -10.645120 -0.793286 50.000000
v -10.602062 -1.161890 -50.000000
v -10.602062 -1.161890 50.000000
v -10.554783 -0.410026 -50.000000
v -10.554783 -0.410026 50.000000
v -10.322380 -0.020732 -50.000000
v -10.322380 -0.020732 50.000000
v -10.149082 -1.825531 -50.000000
v -10.149082 -1.825531 50.000000
v -9.939449 0.365328 -50.000000
v -9.939449 0.365328 50.000000
v -9.398144 0.738501 -50.000000
v -9.398144 0.738501 50.000000
v -9.254333 -2.355202 -50.000000
v -9.254333 -2.355202 50.000000
v -8.691625 1.089028 -50.000000
v -8.691625 1.089028 50.000000
v -7.958474 -2.729732 -50.000000
v -7.958474 -2.729732 50.000000
v -7.814470 1.407314 -50.000000
v -7.814470 1.407314 50.000000
v -6.763068 1.684197 -50.000000
v -6.763068 1.684197 50.000000
v -6.286353 -2.950589 -50.000000
v -6.286353 -2.950589 50.000000
v -5.536026 1.911220 -50.000000
v -5.536026 1.911220 50.000000
v -4.253179 -3.036962 -50.000000
v -4.253179 -3.036962 50.000000
v -4.134564 2.080906 -50.000000
v -4.134564 2.080906 50.000000
v -2.562920 2.187023 -50.000000
v -2.562920 2.187023 50.000000
v -1.870848 -3.020735 -50.000000
v -1.870848 -3.020735 50.000000
v -0.828750 2.224860 -50.000000
v -0.828750 2.224860 50.000000
v 0.845725 -2.941460 -50.000000
v 0.845725 -2.941460 50.000000
v 1.056469 2.191496 -50.000000
v 1.056469 2.191496 50.000000
v 3.077044 2.086075 -50.000000
v 3.077044 2.086075 50.000000
v 3.872278 -2.841327 -50.000000
v 3.872278 -2.841327 50.000000
v 7.168870 -2.760139 -50.000000
v 7.168870 -2.760139 50.000000
v 7.438075 1.667511 -50.000000
v 7.438075 1.667511 50.000000
v 10.673554 -2.730283 -50.000000
v 10.673554 -2.730283 50.000000
v 12.035449 1.010729 -50.000000
v 12.035449 1.010729 50.000000
v 14.296048 -2.771702 -50.000000
v 14.296048 -2.771702 50.000000
v 16.593240 0.189687 -50.000000
v 16.593240 0.189687 50.000000
v 17.911401 -2.886866 -50.000000
v 17.911401 -2.886866 50.000000
v 18.763218 -0.253740 -50.000000
v 18.763218 -0.253740 50.000000
v 20.810089 -0.702644 -50.000000
v 20.810089 -0.702644 50.000000
v 21.353989 -3.055906 -50.000000
v 21.353989 -3.055906 50.000000
v 22.697566 -1.144717 -50.000000
v 22.697566 -1.144717 50.000000
v 22.947588 -3.147827 -50.000000
v 22.947588 -3.147827 50.000000
v 24.391856 -1.568199 -50.000000
v 24.391856 -1.568199 50.000000
v 24.419122 -3.235489 -50.000000
v 24.419122 -3.235489 50.000000
v 25.740221 -3.311129 -50.000000
v 25.740221 -3.311129 50.000000
v 25.862675 -1.962319 -50.000000
v 25.862675 -1.962319 50.000000
v 26.882992 -3.366714 -50.000000
v 26.882992 -3.366714 50.000000
v 27.084277 -2.317727 -50.000000
v 27.084277 -2.317727 50.000000
v 27.820861 -3.394293 -50.000000
v 27.820861 -3.394293 50.000000
v 28.036463 -2.626927 -50.000000
v 28.036463 -2.626927 50.000000
v 28.529429 -3.386362 -50.000000
v 28.529429 -3.386362 50.000000
v 28.705614 -2.884713 -50.000000
v 28.705614 -2.884713 50.000000
v 28.987296 -3.336208 -50.000000
v 28.987296 -3.336208 50.000000
v 29.085460 -3.088505 -50.000000
v 29.085460 -3.088505 50.000000
v 29.116561 -3.293506 -50.000000
v 29.116561 -3.293506 50.000000
v 29.155452 -3.267487 -50.000000
v 29.155452 -3.267487 50.000000
v 29.166923 -3.170053 -50.000000
v 29.166923 -3.170053 50.000000
v 29.176919 -3.238273 -50.000000
v 29.176919 -3.238273 50.000000
v 29.180794 -3.205810 -50.000000
v 29.180794 -3.205810 50.000000
vt 3.298865 0.015510 0.000000
vt 3.344163 0.081874 0.000000
vt 3.348469 0.118734 0.000000
vt 3.339435 0.157060 0.000000
vt 3.316195 0.195990 0.000000
vt 3.277902 0.234596 0.000000
vt 3.223771 0.271913 0.000000
vt 3.153119 0.306966 0.000000
vt 3.065403 0.338794 0.000000
vt 2.960263 0.366482 0.000000
vt 2.837559 0.389185 0.000000
vt 2.697413 0.406153 0.000000
vt 2.540249 0.416765 0.000000
vt 2.366832 0.420549 0.000000
vt 2.178310 0.417212 0.000000
vt 1.976252 0.406670 0.000000
vt 1.540149 0.364814 0.000000
vt 1.080412 0.299136 0.000000
vt 0.624633 0.217032 0.000000
vt 0.407635 0.172689 0.000000
vt 0.202948 0.127798 0.000000
vt 0.014200 0.083591 0.000000
vt -0.155229 0.041243 0.000000
vt -0.302311 0.001831 0.000000
vt -0.424471 -0.033710 0.000000
vt -0.519690 -0.064630 0.000000
vt -0.586605 -0.090409 0.000000
vt -0.624589 -0.110788 0.000000
vt -0.632736 -0.118942 0.000000
vt -0.634123 -0.122518 0.000000
vt -0.633735 -0.125764 0.000000
vt -0.631589 -0.128686 0.000000
vt -0.627700 -0.131288 0.000000
vt -0.614773 -0.135558 0.000000
vt -0.568986 -0.140573 0.000000
vt -0.498130 -0.141367 0.000000
vt -0.404343 -0.138609 0.000000
vt -0.290065 -0.133050 0.000000
vt -0.157956 -0.125486 0.000000
vt -0.010802 -0.116720 0.000000
vt 0.148558 -0.107528 0.000000
vt 0.492816 -0.090624 0.000000
vt 0.854352 -0.079107 0.000000
vt 1.216601 -0.074965 0.000000
vt 1.567070 -0.077951 0.000000
vt 1.896729 -0.086070 0.000000
vt 2.199384 -0.096083 0.000000
vt 2.471041 -0.104011 0.000000
vt 2.709275 -0.105633 0.000000
vt 2.912592 -0.096996 0.000000
vt 3.079804 -0.074910 0.000000
vt 3.209390 -0.037457 0.000000
vt 0.853562 -5.000000 0.000000
vt 0.853562 5.000000 0.000000
vt 0.826889 5.000000 0.000000
vt 0.813552 5.000000 0.000000
vt 0.800215 5.000000 0.000000
vt 0.786878 5.000000 0.000000
vt 0.773541 5.000000 0.000000
vt 0.760204 5.000000 0.000000
vt 0.746867 5.000000 0.000000
vt 0.733530 5.000000 0.000000
vt 0.720193 5.000000 0.000000
vt 0.706856 5.000000 0.000000
vt 0.693519 5.000000 0.000000
vt 0.680183 5.000000 0.000000
vt 0.666846 5.000000 0.000000
vt 0.653509 5.000000 0.000000
vt 0.640172 5.000000 0.000000
vt 0.613498 5.000000 0.000000
vt 0.586824 5.000000 0.000000
vt 0.560150 5.000000 0.000000
vt 0.546813 5.000000 0.000000
vt 0.533477 5.000000 0.000000
vt 0.520140 5.000000 0.000000
vt 0.506803 5.000000 0.000000
vt 0.493466 5.000000 0.000000
vt 0.480129 5.000000 0.000000
vt 0.466792 5.000000 0.000000
vt 0.453455 5.000000 0.000000
vt 0.440118 5.000000 0.000000
vt 0.433450 5.000000 0.000000
vt 0.430115 5.000000 0.000000
vt 0.426781 5.000000 0.000000
vt 0.423447 5.000000 0.000000
vt 0.420113 5.000000 0.000000
vt 0.413444 5.000000 0.000000
vt 0.400107 5.000000 0.000000
vt 0.386770 5.000000 0.000000
vt 0.373434 5.000000 0.000000
vt 0.360097 5.000000 0.000000
vt 0.346760 5.000000 0.000000
vt 0.333423 5.000000 0.000000
vt 0.320086 5.000000 0.000000
vt 0.293412 5.000000 0.000000
vt 0.266738 5.000000 0.000000
vt 0.240064 5.000000 0.000000
vt 0.213391 5.000000 0.000000
vt 0.186717 5.000000 0.000000
vt 0.160043 5.000000 0.000000
vt 0.133369 5.000000 0.000000
vt 0.106695 5.000000 0.000000
vt 0.080021 5.000000 0.000000
vt 0.053348 5.000000 0.000000
vt 0.026674 5.000000 0.000000
vt 0.000000 5.000000 0.000000
vt 0.000000 -5.000000 0.000000
vt 0.026674 -5.000000 0.000000
vt 0.053348 -5.000000 0.000000
vt 0.080021 -5.000000 0.000000
vt 0.106695 -5.000000 0.000000
vt 0.133369 -5.000000 0.000000
vt 0.160043 -5.000000 0.000000
vt 0.186717 -5.000000 0.000000
vt 0.213391 -5.000000 0.000000
vt 0.240064 -5.000000 0.000000
vt 0.266738 -5.000000 0.000000
vt 0.293412 -5.000000 0.000000
vt 0.320086 -5.000000 0.000000
vt 0.333423 -5.000000 0.000000
vt 0.346760 -5.000000 0.000000
vt 0.360097 -5.000000 0.000000
vt 0.373434 -5.000000 0.000000
vt 0.386770 -5.000000 0.000000
vt 0.400107 -5.000000 0.000000
vt 0.413444 -5.000000 0.000000
vt 0.420113 -5.000000 0.000000
vt 0.423447 -5.000000 0.000000
vt 0.426781 -5.000000 0.000000
vt 0.430115 -5.000000 0.000000
vt 0.433450 -5.000000 0.000000
vt 0.440118 -5.000000 0.000000
vt 0.453455 -5.000000 0.000000
vt 0.466792 -5.000000 0.000000
vt 0.480129 -5.000000 0.000000
vt 0.493466 -5.000000 0.000000
vt 0.506803 -5.000000 0.000000
vt 0.520140 -5.000000 0.000000
vt 0.533477 -5.000000 0.000000
vt 0.546813 -5.000000 0.000000
vt 0.560150 -5.000000 0.000000
vt 0.586824 -5.000000 0.000000
vt 0.613498 -5.000000 0.000000
vt 0.640172 -5.000000 0.000000
vt 0.653509 -5.000000 0.000000
vt 0.666846 -5.000000 0.000000
vt 0.680183 -5.000000 0.000000
vt 0.693519 -5.000000 0.000000
vt 0.706856 -5.000000 0.000000
vt 0.720193 -5.000000 0.000000
vt 0.733530 -5.000000 0.000000
vt 0.746867 -5.000000 0.000000
vt 0.760204 -5.000000 0.000000
vt 0.773541 -5.000000 0.000000
vt 0.786878 -5.000000 0.000000
vt 0.800215 -5.000000 0.000000
vt 0.813552 -5.000000 0.000000
vt 0.826889 -5.000000 0.000000
vt -3.298865 0.015510 0.000000
vt -3.209390 -0.037457 0.000000
vt -3.079804 -0.074910 0.000000
vt -2.912592 -0.096996 0.000000
vt -2.709275 -0.105633 0.000000
vt -2.471041 -0.104011 0.000000
vt -2.199384 -0.096083 0.000000
vt -1.896729 -0.086070 0.000000
vt -1.567070 -0.077951 0.000000
vt -1.216601 -0.074965 0.000000
vt -0.854352 -0.079107 0.000000
vt -0.492816 -0.090624 0.000000
vt -0.148558 -0.107528 0.000000
vt 0.010802 -0.116720 0.000000
vt 0.157956 -0.125486 0.000000
vt 0.290065 -0.133050 0.000000
vt 0.404343 -0.138609 0.000000
vt 0.498130 -0.141367 0.000000
vt 0.568986 -0.140573 0.000000
vt 0.614773 -0.135558 0.000000
vt 0.627700 -0.131288 0.000000
vt 0.631589 -0.128686 0.000000
vt 0.633735 -0.125764 0.000000
vt 0.634123 -0.122518 0.000000
vt 0.632736 -0.118942 0.000000
vt 0.624589 -0.110788 0.000000
vt 0.586605 -0.090409 0.000000
vt 0.519690 -0.064630 0.000000
vt 0.424471 -0.033710 0.000000
vt 0.302311 0.001831 0.000000
vt 0.155229 0.041243 0.000000
vt -0.014200 0.083591 0.000000
vt -0.202948 0.127798 0.000000
vt -0.407635 0.172689 0.000000
vt -0.624633 0.217032 0.000000
vt -1.080412 0.299136 0.000000
vt -1.540149 0.364814 0.000000
vt -1.976252 0.406670 0.000000
vt -2.178310 0.417212 0.000000
vt -2.366832 0.420549 0.000000
vt -2.540249 0.416765 0.000000
vt -2.697413 0.406153 0.000000
vt -2.837559 0.389185 0.000000
vt -2.960263 0.366482 0.000000
vt -3.065403 0.338794 0.000000
vt -3.153119 0.306966 0.000000
vt -3.223771 0.271913 0.000000
vt -3.277902 0.234596 0.000000
vt -3.316195 0.195990 0.000000
vt -3.339435 0.157060 0.000000
vt -3.348469 0.118734 0.000000
vt -3.344163 0.081874 0.000000
vn 0.000000 0.000000 -0.100000
vn 0.000000 0.000000 -0.100000
vn 0.000000 0.000000 -0.100000
vn 0.000000 0.000000 -0.100000
vn 0.000000 0.000000 -0.100000
vn 0.000000 0.000000 -0.100000
vn 0.000000 0.000000 -0.100000
vn 0.000000 0.000000 -0.100000
vn 0.000000 0.000000 -0.100000
vn 0.000000 0.000000 -0.100000
vn 0.000000 0.000000 -0.100000
vn 0.000000 0.000000 -0.100000
vn 0.000000 0.000000 -0.100000
vn 0.000000 0.000000 -0.100000
vn 0.000000 0.000000 -0.100000
vn 0.000000 0.000000 -0.100000
vn 0.000000 0.000000 -0.100000
vn 0.000000 0.000000 -0.100000
vn 0.000000 0.000000 -0.100000
vn 0.000000 0.000000 -0.100000
vn 0.000000 0.000000 -0.100000
vn 0.000000 0.000000 -0.100000
vn 0.000000 0.000000 -0.100000
vn 0.000000 0.000000 -0.100000
vn 0.000000 0.000000 -0.100000
vn 0.000000 0.000000 -0.100000
vn 0.000000 0.000000 -0.100000
vn 0.000000 0.000000 -0.100000
vn 0.000000 0.000000 -0.100000
vn 0.000000 0.000000 -0.100000
vn 0.000000 0.000000 -0.100000
vn 0.000000 0.000000 -0.100000
vn 0.000000 0.000000 -0.100000
vn 0.000000 0.000000 -0.100000
vn 0.000000 0.000000 -0.100000
vn 0.000000 0.000000 -0.100000
vn 0.000000 0.000000 -0.100000
vn 0.000000 0.000000 -0.100000
vn 0.000000 0.000000 -0.100000
vn 0.000000 0.000000 -0.100000
vn 0.000000 0.000000 -0.100000
vn 0.000000 0.000000 -0.100000
vn 0.000000 0.000000 -0.100000
vn 0.000000 0.000000 -0.100000
vn 0.000000 0.000000 -0.100000
vn 0.000000 0.000000 -0.100000
vn 0.000000 0.000000 -0.100000
vn 0.000000 0.000000 -0.100000
vn 0.000000 0.000000 -0.100000
vn 0.000000 0.000000 -0.100000
vn 0.000000 0.000000 -0.100000
vn 0.000000 0.000000 -0.100000
vn -0.066182 -0.074966 0.000000
vn -0.066182 -0.074966 0.000000
vn -0.095833 -0.028565 0.000000
vn -0.099827 0.005873 0.000000
vn -0.092446 0.038127 0.000000
vn -0.078588 0.061838 0.000000
vn -0.063739 0.077054 0.000000
vn -0.050400 0.086370 0.000000
vn -0.039092 0.092043 0.000000
vn -0.029634 0.095508 0.000000
vn -0.021704 0.097616 0.000000
vn -0.015003 0.098868 0.000000
vn -0.009292 0.099567 0.000000
vn -0.004385 0.099904 0.000000
vn -0.000141 0.100000 0.000000
vn 0.003548 0.099937 0.000000
vn 0.006765 0.099771 0.000000
vn 0.012026 0.099274 0.000000
vn 0.016069 0.098700 0.000000
vn 0.019302 0.098119 0.000000
vn 0.020736 0.097826 0.000000
vn 0.022119 0.097523 0.000000
vn 0.023520 0.097195 0.000000
vn 0.025038 0.096815 0.000000
vn 0.026841 0.096330 0.000000
vn 0.029254 0.095625 0.000000
vn 0.033017 0.094392 0.000000
vn 0.040278 0.091530 0.000000
vn 0.060083 0.079938 0.000000
vn 0.085408 0.052013 0.000000
vn 0.098952 0.014438 0.000000
vn 0.092465 -0.038082 0.000000
vn 0.067459 -0.073820 0.000000
vn 0.045722 -0.088935 0.000000
vn 0.021898 -0.097573 0.000000
vn 0.004770 -0.099886 0.000000
vn -0.001332 -0.099991 0.000000
vn -0.004102 -0.099916 0.000000
vn -0.005407 -0.099854 0.000000
vn -0.005912 -0.099825 0.000000
vn -0.005912 -0.099825 0.000000
vn -0.005559 -0.099845 0.000000
vn -0.004139 -0.099914 0.000000
vn -0.002184 -0.099976 0.000000
vn -0.000105 -0.100000 0.000000
vn 0.001759 -0.099985 0.000000
vn 0.003054 -0.099953 0.000000
vn 0.003360 -0.099944 0.000000
vn 0.002144 -0.099977 0.000000
vn -0.001310 -0.099991 0.000000
vn -0.008018 -0.099678 0.000000
vn -0.019509 -0.098079 0.000000
vn -0.038104 -0.092456 0.000000
vn -0.066182 -0.074966 0.000000
vn -0.066182 -0.074966 0.000000
vn -0.038104 -0.092456 0.000000
vn -0.019509 -0.098079 0.000000
vn -0.008018 -0.099678 0.000000
vn -0.001310 -0.099991 0.000000
vn 0.002144 -0.099977 0.000000
vn 0.003360 -0.099944 0.000000
vn 0.003054 -0.099953 0.000000
vn 0.001759 -0.099985 0.000000
vn -0.000105 -0.100000 0.000000
vn -0.002184 -0.099976 0.000000
vn -0.004139 -0.099914 0.000000
vn -0.005559 -0.099845 0.000000
vn -0.005912 -0.099825 0.000000
vn -0.005912 -0.099825 0.000000
vn -0.005407 -0.099854 0.000000
vn -0.004102 -0.099916 0.000000
vn -0.001332 -0.099991 0.000000
vn 0.004770 -0.099886 0.000000
vn 0.021898 -0.097573 0.000000
vn 0.045722 -0.088935 0.000000
vn 0.067459 -0.073820 0.000000
vn 0.092465 -0.038082 0.000000
vn 0.098952 0.014438 0.000000
vn 0.085408 0.052013 0.000000
vn 0.060083 0.079938 0.000000
vn 0.040278 0.091530 0.000000
vn 0.033017 0.094392 0.000000
vn 0.029254 0.095625 0.000000
vn 0.026841 0.096330 0.000000
vn 0.025038 0.096815 0.000000
vn 0.023520 0.097195 0.000000
vn 0.022119 0.097523 0.000000
vn 0.020736 0.097826 0.000000
vn 0.019302 0.098119 0.000000
vn 0.016069 0.098700 0.000000
vn 0.012026 0.099274 0.000000
vn 0.006765 0.099771 0.000000
vn 0.003548 0.099937 0.000000
vn -0.000141 0.100000 0.000000
vn -0.004385 0.099904 0.000000
vn -0.009292 0.099567 0.000000
vn -0.015003 0.098868 0.000000
vn -0.021704 0.097616 0.000000
vn -0.029634 0.095508 0.000000
vn -0.039092 0.092043 0.000000
vn -0.050400 0.086370 0.000000
vn -0.063739 0.077054 0.000000
vn -0.078588 0.061838 0.000000
vn -0.092446 0.038127 0.000000
vn -0.099827 0.005873 0.000000
vn -0.095833 -0.028565 0.000000
vn 0.000000 0.000000 0.100000
vn 0.000000 0.000000 0.100000
vn 0.000000 0.000000 0.100000
vn 0.000000 0.000000 0.100000
vn 0.000000 0.000000 0.100000
vn 0.000000 0.000000 0.100000
vn 0.000000 0.000000 0.100000
vn 0.000000 0.000000 0.100000
vn 0.000000 0.000000 0.100000
vn 0.000000 0.000000 0.100000
vn 0.000000 0.000000 0.100000
vn 0.000000 0.000000 0.100000
vn 0.000000 0.000000 0.100000
vn 0.000000 0.000000 0.100000
vn 0.000000 0.000000 0.100000
vn 0.000000 0.000000 0.100000
vn 0.000000 0.000000 0.100000
vn 0.000000 0.000000 0.100000
vn 0.000000 0.000000 0.100000
vn 0.000000 0.000000 0.100000
vn 0.000000 0.000000 0.100000
vn 0.000000 0.000000 0.100000
vn 0.000000 0.000000 0.100000
vn 0.000000 0.000000 0.100000
vn 0.000000 0.000000 0.100000
vn 0.000000 0.000000 0.100000
vn 0.000000 0.000000 0.100000
vn 0.000000 0.000000 0.100000
vn 0.000000 0.000000 0.100000
vn 0.000000 0.000000 0.100000
vn 0.000000 0.000000 0.100000
vn 0.000000 0.000000 0.100000
vn 0.000000 0.000000 0.100000
vn 0.000000 0.000000 0.100000
vn 0.000000 0.000000 0.100000
vn 0.000000 0.000000 0.100000
vn 0.000000 0.000000 0.100000
vn 0.000000 0.000000 0.100000
vn 0.000000 0.000000 0.100000
vn 0.000000 0.000000 0.100000
vn 0.000000 0.000000 0.100000
vn 0.000000 0.000000 0.100000
vn 0.000000 0.000000 0.100000
vn 0.000000 0.000000 0.100000
vn 0.000000 0.000000 0.100000
vn 0.000000 0.000000 0.100000
vn 0.000000 0.000000 0.100000
vn 0.000000 0.000000 0.100000
vn 0.000000 0.000000 0.100000
vn 0.000000 0.000000 0.100000
vn 0.000000 0.000000 0.100000
vn 0.000000 0.000000 0.100000
usemtl 191,191,191
f 3/2/2 29/49/49 9/1/1
f 9/1/1 29/49/49 25/50/50
f 9/1/1 25/50/50 15/52/52
f 15/52/52 25/50/50 19/51/51
f 29/49/49 3/2/2 35/48/48
f 35/48/48 3/2/2 1/3/3
f 35/48/48 1/3/3 5/4/4
f 5/4/4 7/5/5 35/48/48
f 35/48/48 7/5/5 11/6/6
f 35/48/48 11/6/6 39/47/47
f 39/47/47 11/6/6 41/15/15
f 39/47/47 41/15/15 43/16/16
f 11/6/6 13/7/7 41/15/15
f 41/15/15 13/7/7 37/14/14
f 37/14/14 13/7/7 17/8/8
f 37/14/14 17/8/8 21/9/9
f 21/9/9 23/10/10 37/14/14
f 37/14/14 23/10/10 33/13/13
f 33/13/13 23/10/10 31/12/12
f 31/12/12 23/10/10 27/11/11
f 39/47/47 43/16/16 45/46/46
f 45/46/46 43/16/16 49/17/17
f 45/46/46 49/17/17 47/45/45
f 47/45/45 49/17/17 53/18/18
f 47/45/45 53/18/18 51/44/44
f 51/44/44 53/18/18 57/19/19
f 51/44/44 57/19/19 55/43/43
f 55/43/43 57/19/19 61/20/20
f 55/43/43 61/20/20 63/21/21
f 55/43/43 63/21/21 59/42/42
f 59/42/42 63/21/21 67/22/22
f 59/42/42 67/22/22 65/41/41
f 65/41/41 67/22/22 71/23/23
f 65/41/41 71/23/23 69/40/40
f 69/40/40 71/23/23 77/24/24
f 69/40/40 77/24/24 73/39/39
f 73/39/39 77/24/24 81/25/25
f 73/39/39 81/25/25 75/38/38
f 75/38/38 81/25/25 85/26/26
f 75/38/38 85/26/26 79/37/37
f 79/37/37 85/26/26 89/27/27
f 79/37/37 89/27/27 83/36/36
f 83/36/36 89/27/27 93/28/28
f 83/36/36 93/28/28 87/35/35
f 87/35/35 93/28/28 99/29/29
f 87/35/35 99/29/29 103/30/30
f 103/30/30 101/31/31 87/35/35
f 87/35/35 101/31/31 91/34/34
f 91/34/34 101/31/31 97/32/32
f 91/34/34 97/32/32 95/33/33
f 10/54/54 4/55/55 9/53/53
f 9/53/53 4/55/55 3/158/158
f 3/158/158 4/55/55 2/56/56
f 3/158/158 2/56/56 1/157/157
f 1/157/157 2/56/56 6/57/57
f 1/157/157 6/57/57 5/156/156
f 5/156/156 6/57/57 8/58/58
f 5/156/156 8/58/58 7/155/155
f 7/155/155 8/58/58 12/59/59
f 7/155/155 12/59/59 11/154/154
f 11/154/154 12/59/59 14/60/60
f 11/154/154 14/60/60 13/153/153
f 13/153/153 14/60/60 18/61/61
f 13/153/153 18/61/61 17/152/152
f 17/152/152 18/61/61 22/62/62
f 17/152/152 22/62/62 21/151/151
f 21/151/151 22/62/62 24/63/63
f 21/151/151 24/63/63 23/150/150
f 23/150/150 24/63/63 28/64/64
f 23/150/150 28/64/64 27/149/149
f 27/149/149 28/64/64 32/65/65
f 27/149/149 32/65/65 31/148/148
f 31/148/148 32/65/65 34/66/66
f 31/148/148 34/66/66 33/147/147
f 33/147/147 34/66/66 38/67/67
f 33/147/147 38/67/67 37/146/146
f 37/146/146 38/67/67 42/68/68
f 37/146/146 42/68/68 41/145/145
f 41/145/145 42/68/68 44/69/69
f 41/145/145 44/69/69 43/144/144
f 43/144/144 44/69/69 50/70/70
f 43/144/144 50/70/70 49/143/143
f 49/143/143 50/70/70 54/71/71
f 49/143/143 54/71/71 53/142/142
f 53/142/142 54/71/71 58/72/72
f 53/142/142 58/72/72 57/141/141
f 57/141/141 58/72/72 62/73/73
f 57/141/141 62/73/73 61/140/140
f 61/140/140 62/73/73 64/74/74
f 61/140/140 64/74/74 63/139/139
f 63/139/139 64/74/74 68/75/75
f 63/139/139 68/75/75 67/138/138
f 67/138/138 68/75/75 72/76/76
f 67/138/138 72/76/76 71/137/137
f 71/137/137 72/76/76 78/77/77
f 71/137/137 78/77/77 77/136/136
f 77/136/136 78/77/77 82/78/78
f 77/136/136 82/78/78 81/135/135
f 81/135/135 82/78/78 86/79/79
f 81/135/135 86/79/79 85/134/134
f 85/134/134 86/79/79 90/80/80
f 85/134/134 90/80/80 89/133/133
f 89/133/133 90/80/80 94/81/81
f 89/133/133 94/81/81 93/132/132
f 93/132/132 94/81/81 100/82/82
f 93/132/132 100/82/82 99/131/131
f 99/131/131 100/82/82 104/83/83
f 99/131/131 104/83/83 103/130/130
f 103/130/130 104/83/83 102/84/84
f 103/130/130 102/84/84 101/129/129
f 101/129/129 102/84/84 98/85/85
f 101/129/129 98/85/85 97/128/128
f 97/128/128 98/85/85 96/86/86
f 97/128/128 96/86/86 95/127/127
f 95/127/127 96/86/86 92/87/87
f 95/127/127 92/87/87 91/126/126
f 91/126/126 92/87/87 88/88/88
f 91/126/126 88/88/88 87/125/125
f 87/125/125 88/88/88 84/89/89
f 87/125/125 84/89/89 83/124/124
f 83/124/124 84/89/89 80/90/90
f 83/124/124 80/90/90 79/123/123
f 79/123/123 80/90/90 76/91/91
f 79/123/123 76/91/91 75/122/122
f 75/122/122 76/91/91 74/92/92
f 75/122/122 74/92/92 73/121/121
f 73/121/121 74/92/92 70/93/93
f 73/121/121 70/93/93 69/120/120
f 69/120/120 70/93/93 66/94/94
f 69/120/120 66/94/94 65/119/119
f 65/119/119 66/94/94 60/95/95
f 65/119/119 60/95/95 59/118/118
f 59/118/118 60/95/95 56/96/96
f 59/118/118 56/96/96 55/117/117
f 55/117/117 56/96/96 52/97/97
f 55/117/117 52/97/97 51/116/116
f 51/116/116 52/97/97 48/98/98
f 51/116/116 48/98/98 47/115/115
f 47/115/115 48/98/98 46/99/99
f 47/115/115 46/99/99 45/114/114
f 45/114/114 46/99/99 40/100/100
f 45/114/114 40/100/100 39/113/113
f 39/113/113 40/100/100 36/101/101
f 39/113/113 36/101/101 35/112/112
f 35/112/112 36/101/101 30/102/102
f 35/112/112 30/102/102 29/111/111
f 29/111/111 30/102/102 26/103/103
f 29/111/111 26/103/103 25/110/110
f 25/110/110 26/103/103 20/104/104
f 25/110/110 20/104/104 19/109/109
f 19/109/109 20/104/104 16/105/105
f 19/109/109 16/105/105 15/108/108
f 15/108/108 16/105/105 10/106/106
f 15/108/108 10/106/106 9/107/107
f 16/160/160 26/162/162 10/159/159
f 10/159/159 26/162/162 30/163/163
f 10/159/159 30/163/163 36/164/164
f 16/160/160 20/161/161 26/162/162
f 36/164/164 40/165/165 10/159/159
f 10/159/159 40/165/165 46/166/166
f 10/159/159 46/166/166 4/210/210
f 4/210/210 46/166/166 2/209/209
f 2/209/209 46/166/166 6/208/208
f 6/208/208 46/166/166 8/207/207
f 8/207/207 46/166/166 12/206/206
f 12/206/206 46/166/166 42/197/197
f 12/206/206 42/197/197 14/205/205
f 14/205/205 42/197/197 38/198/198
f 14/205/205 38/198/198 18/204/204
f 18/204/204 38/198/198 22/203/203
f 22/203/203 38/198/198 24/202/202
f 24/202/202 38/198/198 34/199/199
f 24/202/202 34/199/199 32/200/200
f 48/167/167 50/195/195 46/166/166
f 46/166/166 50/195/195 44/196/196
f 46/166/166 44/196/196 42/197/197
f 50/195/195 48/167/167 54/194/194
f 54/194/194 48/167/167 52/168/168
f 54/194/194 52/168/168 58/193/193
f 58/193/193 52/168/168 56/169/169
f 58/193/193 56/169/169 62/192/192
f 62/192/192 56/169/169 64/191/191
f 64/191/191 56/169/169 60/170/170
f 64/191/191 60/170/170 68/190/190
f 68/190/190 60/170/170 66/171/171
f 68/190/190 66/171/171 72/189/189
f 72/189/189 66/171/171 70/172/172
f 72/189/189 70/172/172 78/188/188
f 78/188/188 70/172/172 74/173/173
f 78/188/188 74/173/173 82/187/187
f 82/187/187 74/173/173 76/174/174
f 82/187/187 76/174/174 86/186/186
f 86/186/186 76/174/174 80/175/175
f 86/186/186 80/175/175 90/185/185
f 90/185/185 80/175/175 84/176/176
f 90/185/185 84/176/176 94/184/184
f 94/184/184 84/176/176 88/177/177
f 94/184/184 88/177/177 100/183/183
f 100/183/183 88/177/177 104/182/182
f 104/182/182 88/177/177 102/181/181
f 102/181/181 88/177/177 92/178/178
f 102/181/181 92/178/178 98/180/180
f 98/180/180 92/178/178 96/179/179
f 32/200/200 28/201/201 24/202/202

# 104 vertexes
# 210 texture params
# 210 normals
# 204 facets

# 1 groups
